<?xml version="1.0" encoding="UTF-8" standalone="no"?>
<svg
   xmlns:dc="http://purl.org/dc/elements/1.1/"
   xmlns:cc="http://creativecommons.org/ns#"
   xmlns:rdf="http://www.w3.org/1999/02/22-rdf-syntax-ns#"
   xmlns:svg="http://www.w3.org/2000/svg"
   xmlns="http://www.w3.org/2000/svg"
   xmlns:sodipodi="http://sodipodi.sourceforge.net/DTD/sodipodi-0.dtd"
   xmlns:inkscape="http://www.inkscape.org/namespaces/inkscape"
   version="1.0"
   width="768pt"
   height="768pt"
   viewBox="0 0 768 768"
   preserveAspectRatio="xMidYMid meet"
   id="svg4578"
   sodipodi:docname="favicon.svg"
   inkscape:version="0.92.4 (5da689c313, 2019-01-14)">
  <defs
     id="defs4582" />
  <sodipodi:namedview
     pagecolor="#ffffff"
     bordercolor="#666666"
     borderopacity="1"
     objecttolerance="10"
     gridtolerance="10"
     guidetolerance="10"
     inkscape:pageopacity="0"
     inkscape:pageshadow="2"
     inkscape:window-width="1920"
     inkscape:window-height="1016"
     id="namedview4580"
     showgrid="false"
     fit-margin-top="0"
     fit-margin-left="0"
     fit-margin-right="0"
     fit-margin-bottom="0"
     inkscape:zoom="0.17285156"
     inkscape:cx="682.2"
     inkscape:cy="682.19998"
     inkscape:window-x="0"
     inkscape:window-y="27"
     inkscape:window-maximized="1"
     inkscape:current-layer="svg4578" />
  <metadata
     id="metadata4572">
Created by potrace 1.16, written by Peter Selinger 2001-2019
<rdf:RDF>
  <cc:Work
     rdf:about="">
    <dc:format>image/svg+xml</dc:format>
    <dc:type
       rdf:resource="http://purl.org/dc/dcmitype/StillImage" />
    <dc:title></dc:title>
  </cc:Work>
</rdf:RDF>
</metadata>
  <g
     transform="matrix(0.0750513,0,0,-0.07504076,-0.26267955,768.26261)"
     id="g4576"
     style="fill:#b5e853;stroke:none">
    <path
       d="m 4765,10234 c -529,-52 -854,-117 -1267,-254 -617,-206 -1158,-509 -1678,-939 -148,-122 -499,-473 -621,-621 -103,-124 -249,-315 -249,-325 0,-4 19,9 43,28 59,48 169,117 263,165 242,124 505,182 826,182 401,0 658,-128 823,-409 83,-142 125,-317 159,-665 l 11,-118 44,78 c 164,293 355,536 562,719 224,197 406,298 654,364 246,64 541,65 802,2 369,-89 621,-321 751,-692 70,-200 117,-531 125,-888 l 2,-103 61,78 c 284,364 640,601 1010,670 118,22 356,29 466,14 494,-66 781,-357 882,-895 26,-141 39,-368 33,-565 -15,-431 -77,-819 -242,-1510 -222,-929 -254,-1073 -271,-1212 -33,-267 16,-428 142,-466 64,-19 104,-15 172,18 180,85 427,294 854,721 332,334 355,352 422,335 36,-9 82,-76 96,-139 19,-85 28,-246 19,-333 -17,-152 -86,-321 -213,-522 -274,-432 -749,-817 -1229,-996 -392,-146 -836,-150 -1074,-8 -194,115 -347,330 -393,552 -29,143 -22,348 21,603 33,198 84,398 284,1122 187,676 251,941 310,1293 90,542 24,803 -205,802 -55,0 -159,-26 -224,-55 -198,-88 -436,-330 -673,-685 -198,-297 -411,-714 -548,-1075 -186,-489 -280,-894 -315,-1360 -11,-139 -10,-161 10,-290 13,-79 24,-208 27,-295 4,-132 2,-165 -15,-222 -75,-261 -378,-518 -687,-582 -101,-21 -247,-21 -308,0 -77,26 -144,95 -193,199 -113,240 -117,574 -12,1043 31,140 189,734 358,1342 214,775 337,1334 389,1775 30,250 31,563 1,724 -53,293 -147,412 -345,440 -215,31 -457,-68 -690,-280 -222,-204 -483,-606 -673,-1039 -218,-496 -436,-1194 -597,-1910 -58,-255 -57,-301 4,-613 94,-473 124,-719 110,-892 -18,-233 -93,-394 -239,-513 -94,-76 -472,-250 -604,-278 -113,-23 -256,-17 -320,15 -132,65 -209,192 -256,421 -28,134 -38,485 -21,706 59,756 183,1543 540,3434 49,261 81,482 81,568 0,44 -7,132 -15,195 -32,248 -102,385 -224,440 -35,16 -65,21 -126,20 -128,-1 -151,-13 -469,-247 -173,-128 -204,-146 -285,-170 -114,-33 -185,-15 -223,57 -21,38 -23,55 -23,189 v 148 l -49,-98 C 272,6890 100,6307 23,5665 -3,5449 -3,4791 23,4575 138,3617 470,2779 1029,2035 c 144,-192 267,-332 471,-535 399,-400 779,-679 1272,-934 549,-284 1147,-464 1803,-543 216,-26 874,-26 1090,0 947,114 1782,441 2515,987 212,158 347,276 560,490 394,393 672,770 923,1250 293,559 473,1154 554,1827 26,214 26,873 0,1088 -114,947 -441,1781 -987,2515 -158,212 -276,347 -490,560 -393,394 -770,672 -1250,923 -557,292 -1154,473 -1820,553 -128,15 -795,29 -905,18 z"
       id="path4574"
       inkscape:connector-curvature="0" />
  </g>
</svg>
